#Comment line ignore any data following # character 
#Hierarchical Translation and Rotation (.htr) file 
[Header]	
#Header keywords are followed by a single value 
FileType HTR		#Single word string
DataType HTRS		#Translation followed by rotation and scale data
FileVersion 1		#integer
NumSegments 29		#integer
NumFrames 4		#integer
DataFrameRate 30		#integer, data frame rate in this file
EulerRotationOrder ZYX
CalibrationUnits mm
RotationUnits Degrees
GlobalAxisofGravity Y
BoneLengthAxis Y
ScaleFactor 1.00
[SegmentNames&Hierarchy]
#CHILD	PARENT
MASTER GLOBAL
weapon MASTER
back_slider weapon
front_bottom weapon
front_middle_part1 weapon
front_middle_part2 weapon
front_middle_part3 weapon
front_middle_part4 weapon
front_top weapon
wing_bottom_left weapon
wing_bottom_right weapon
wing_top_left weapon
wing_top_right weapon
front_bottom_rumble_left front_bottom
front_bottom_rumble_right front_bottom
back_rotate_bottom_left front_middle_part3
back_rotate_bottom_right front_middle_part3
back_rotate_top_left front_middle_part3
back_rotate_top_right front_middle_part3
front_middle_part3_left front_middle_part3
front_middle_part3_right front_middle_part3
wing_bottom_left_buckets_1 wing_bottom_left
wing_bottom_left_buckets_2 wing_bottom_left
wing_bottom_left_buckets_3 wing_bottom_left
wing_bottom_right_buckets wing_bottom_right
wing_top_left_buckets wing_top_left
wing_top_left_buckets_1 wing_top_left
wing_top_left_buckets_3 wing_top_left
wing_top_right_buckets wing_top_right
[BasePosition]
#SegmentName Tx, Ty, Tz, Rx, Ry, Rz, BoneLength
MASTER 0.000000 0.000000 0.000000 -90.000000 0.000000 0.000000 10.000000 
weapon 0.000000 0.000000 0.000000 0.000000 0.000000 0.000000 10.000000 
back_slider 0.000000 0.000000 0.000000 0.000000 0.000000 0.000000 10.000000 
front_bottom 0.000000 0.000000 0.000000 0.000000 0.000000 0.000000 10.000000 
front_middle_part1 0.000000 0.000000 0.000000 0.000000 0.000000 0.000000 10.000000 
front_middle_part2 0.000000 0.000000 0.000000 0.000000 0.000000 0.000000 10.000000 
front_middle_part3 0.000000 0.000000 0.000000 0.000000 0.000000 0.000000 10.000000 
front_middle_part4 0.000000 0.000000 0.000000 0.000000 0.000000 0.000000 10.000000 
front_top 0.000000 0.000000 0.000000 0.000000 0.000000 0.000000 10.000000 
wing_bottom_left 0.000000 0.000000 0.000000 0.000000 0.000000 0.000000 10.000000 
wing_bottom_right 0.000000 0.000000 0.000000 0.000000 0.000000 0.000000 10.000000 
wing_top_left 0.000000 0.000000 0.000000 0.000000 0.000000 0.000000 10.000000 
wing_top_right 0.000000 0.000000 0.000000 0.000000 0.000000 0.000000 10.000000 
front_bottom_rumble_left 0.000000 0.000000 0.000000 0.000000 0.000000 0.000000 10.000000 
front_bottom_rumble_right 0.000000 0.000000 0.000000 0.000000 0.000000 0.000000 10.000000 
back_rotate_bottom_left 0.000000 0.000000 0.000000 0.000000 0.000000 0.000000 10.000000 
back_rotate_bottom_right 0.000000 0.000000 0.000000 0.000000 0.000000 0.000000 10.000000 
back_rotate_top_left 0.000000 0.000000 0.000000 0.000000 0.000000 0.000000 10.000000 
back_rotate_top_right 0.000000 0.000000 0.000000 0.000000 0.000000 0.000000 10.000000 
front_middle_part3_left 0.000000 0.000000 0.000000 0.000000 0.000000 0.000000 10.000000 
front_middle_part3_right 0.000000 0.000000 0.000000 0.000000 0.000000 0.000000 10.000000 
wing_bottom_left_buckets_1 0.000000 0.000000 0.000000 0.000000 0.000000 0.000000 10.000000 
wing_bottom_left_buckets_2 0.000000 0.000000 0.000000 0.000000 0.000000 0.000000 10.000000 
wing_bottom_left_buckets_3 0.000000 0.000000 0.000000 0.000000 0.000000 0.000000 10.000000 
wing_bottom_right_buckets 0.000000 0.000000 0.000000 0.000000 0.000000 0.000000 10.000000 
wing_top_left_buckets 0.000000 0.000000 0.000000 0.000000 0.000000 0.000000 10.000000 
wing_top_left_buckets_1 0.000000 0.000000 0.000000 0.000000 0.000000 0.000000 10.000000 
wing_top_left_buckets_3 0.000000 0.000000 0.000000 0.000000 0.000000 0.000000 10.000000 
wing_top_right_buckets 0.000000 0.000000 0.000000 0.000000 0.000000 0.000000 10.000000 
#Beginning of Data. Separated by tabs
#Fr	Tx	Ty	Tz	Rx	Ry	Rz	SF
[MASTER]
12 -0.000019 0.000000 0.000000 0.000000 -0.000000 0.000000 0.000019
13 -0.000019 0.000000 0.000000 0.000000 -0.000000 0.000000 0.000019
14 -0.000019 0.000000 0.000000 0.000000 -0.000000 0.000000 0.000019
15 -0.000019 0.000000 0.000000 0.000000 -0.000000 0.000000 0.000019
[weapon]
12 -0.000076 -79.014702 86.001579 0.000000 0.000000 -0.000020 116.788681
13 -0.000076 -79.014702 86.001579 0.000000 0.000000 -0.000020 116.788681
14 -0.000076 -79.014702 86.001579 0.000000 0.000000 -0.000020 116.788681
15 -0.000076 -79.014702 86.001579 0.000000 0.000000 -0.000020 116.788681
[back_slider]
12 0.000019 26.663260 -85.991982 0.000000 -0.000000 0.000000 90.030830
13 0.000000 21.710079 -85.992126 0.000000 -0.000000 0.000000 88.690323
14 0.000019 16.311291 -85.992043 0.000000 -0.000000 0.000000 87.525368
15 0.000038 10.912502 -85.991974 0.000000 -0.000000 0.000000 86.681610
[front_bottom]
12 0.000038 676.933716 -216.477203 9.056749 -0.001524 179.998215 710.705017
13 0.000038 678.945923 -216.631821 8.893039 -0.001526 179.998215 712.668884
14 0.000038 680.958069 -216.786438 8.714478 -0.001529 179.998215 714.632996
15 0.000038 682.970276 -216.941055 8.535915 -0.001532 179.998215 716.597412
[front_middle_part1]
12 0.000000 519.313477 -85.992035 0.001395 -24.507635 0.001395 526.384949
13 0.000000 519.313477 -85.992035 0.001366 -28.481081 0.001366 526.384949
14 0.000000 519.313477 -85.992035 0.001338 -32.634098 0.001338 526.384949
15 0.000000 519.313477 -85.992035 0.001312 -36.951584 0.001312 526.384949
[front_middle_part2]
12 0.000000 477.040344 -85.992035 0.002060 20.527054 0.002060 484.728912
13 0.000000 477.040344 -85.992035 0.002156 24.045624 0.002156 484.728912
14 0.000000 477.040344 -85.992035 0.002270 27.740152 0.002270 484.728912
15 0.000000 477.040344 -85.992035 0.002405 31.577406 0.002405 484.728912
[front_middle_part3]
12 0.000051 -193.428848 -85.991974 0.000000 -0.000000 0.000000 211.682159
13 0.000038 -196.014709 -85.991974 0.000000 -0.000000 0.000000 214.047623
14 0.000038 -198.811829 -85.991974 0.000000 -0.000000 0.000000 216.612015
15 0.000038 -201.608948 -85.991974 0.000000 -0.000000 0.000000 219.182083
[front_middle_part4]
12 0.000000 -443.853668 -85.992035 0.000000 -0.000000 0.000000 452.106964
13 0.000000 -443.853668 -85.992035 0.000000 -0.000000 0.000000 452.106964
14 0.000000 -443.853668 -85.992035 0.000000 -0.000000 0.000000 452.106964
15 0.000000 -443.853668 -85.992035 0.000000 -0.000000 0.000000 452.106964
[front_top]
12 0.000000 563.589783 -159.755249 -3.732996 0.001713 0.001605 585.794495
13 0.000019 570.095093 -160.092773 -4.351590 0.001722 0.001596 592.147034
14 0.000038 576.600342 -160.430298 -5.004965 0.001731 0.001586 598.502930
15 0.000025 583.514893 -160.789032 -5.688217 0.001740 0.001575 605.262512
[wing_bottom_left]
12 -124.333710 235.191696 -217.766312 175.931320 54.898201 175.029007 343.796692
13 -124.333710 235.191696 -217.766312 175.268845 54.863400 174.223373 343.796692
14 -124.333710 235.191696 -217.766312 174.584290 54.822838 173.384628 343.796692
15 -124.333710 235.191696 -217.766312 173.875397 54.770420 172.517761 343.796692
[wing_bottom_right]
12 124.947586 235.191696 -217.766144 0.000000 54.999989 0.000000 344.019073
13 124.947586 235.191696 -217.766144 0.000000 54.999989 0.000000 344.019073
14 124.947586 235.191696 -217.766144 0.000000 54.999989 0.000000 344.019073
15 124.947586 235.191696 -217.766144 0.000000 54.999989 0.000000 344.019073
[wing_top_left]
12 -124.333710 235.191696 62.502743 -175.154404 -54.854092 174.080780 273.277527
13 -124.333710 235.191696 62.502743 -174.377350 -54.807510 173.127472 273.277527
14 -124.333710 235.191696 62.502743 -173.568909 -54.747223 172.142670 273.277527
15 -124.333710 235.191696 62.502743 -172.741211 -54.673061 171.127502 273.277527
[wing_top_right]
12 131.595657 235.191696 62.502682 -0.000000 -55.000015 0.000000 276.657074
13 131.595657 235.191696 62.502682 -0.000000 -55.000015 0.000000 276.657074
14 131.595657 235.191696 62.502682 -0.000000 -55.000015 0.000000 276.657074
15 131.595657 235.191696 62.502682 -0.000000 -55.000015 0.000000 276.657074
[front_bottom_rumble_left]
12 163.070297 263.743958 -16.969442 -129.881882 18.229330 75.387009 310.549133
13 163.070297 263.743958 -16.969442 -129.881882 18.229330 75.387009 310.549133
14 163.070297 263.743958 -16.969442 -129.881882 18.229330 75.387009 310.549133
15 163.070297 263.743958 -16.969442 -129.881882 18.229330 75.387009 310.549133
[front_bottom_rumble_right]
12 -163.070480 263.743835 -16.969442 -50.118145 18.229362 104.612976 310.549133
13 -163.070480 263.743835 -16.969442 -50.118145 18.229362 104.612976 310.549133
14 -163.070480 263.743835 -16.969442 -50.118145 18.229362 104.612976 310.549133
15 -163.070480 263.743835 -16.969442 -50.118145 18.229362 104.612976 310.549133
[back_rotate_bottom_left]
12 -38.067558 -195.870575 -38.097980 0.000000 -0.000000 0.000000 203.140045
13 -38.067558 -195.870575 -38.097980 0.000000 -0.000000 0.000000 203.140045
14 -38.067558 -195.870575 -38.097980 0.000000 -0.000000 0.000000 203.140045
15 -38.067558 -195.870575 -38.097980 0.000000 -0.000000 0.000000 203.140045
[back_rotate_bottom_right]
12 38.098610 -195.870575 -38.057903 0.000000 -0.000000 0.000000 203.138351
13 38.098610 -195.870575 -38.057903 0.000000 -0.000000 0.000000 203.138351
14 38.098610 -195.870575 -38.057903 0.000000 -0.000000 0.000000 203.138351
15 38.098610 -195.870575 -38.057903 0.000000 -0.000000 0.000000 203.138351
[back_rotate_top_left]
12 -38.074085 -195.870575 38.105885 0.000000 -0.000000 0.000000 203.142746
13 -38.074085 -195.870575 38.105885 0.000000 -0.000000 0.000000 203.142746
14 -38.074085 -195.870575 38.105885 0.000000 -0.000000 0.000000 203.142746
15 -38.074085 -195.870575 38.105885 0.000000 -0.000000 0.000000 203.142746
[back_rotate_top_right]
12 38.111603 -195.870575 38.079086 0.000000 -0.000000 0.000000 203.144760
13 38.111603 -195.870575 38.079086 0.000000 -0.000000 0.000000 203.144760
14 38.111603 -195.870575 38.079086 0.000000 -0.000000 0.000000 203.144760
15 38.111603 -195.870575 38.079086 0.000000 -0.000000 0.000000 203.144760
[front_middle_part3_left]
12 -90.176392 364.727173 0.462952 90.002296 -0.000000 0.002347 375.709869
13 -90.176392 364.727173 0.462952 90.002296 -0.000000 0.002347 375.709869
14 -90.176392 364.727173 0.462952 90.002296 -0.000000 0.002347 375.709869
15 -90.176392 364.727142 0.462952 90.002296 -0.000000 0.002347 375.709839
[front_middle_part3_right]
12 91.046051 364.727081 0.046265 -90.000000 0.000003 180.000000 375.919159
13 91.046051 364.727081 0.046265 -90.000000 0.000003 180.000000 375.919159
14 91.046051 364.727081 0.046265 -90.000000 0.000003 180.000000 375.919159
15 91.046051 364.727081 0.046265 -90.000000 0.000003 180.000000 375.919159
[wing_bottom_left_buckets_1]
12 -47.610477 -288.454193 -9.889640 -0.000027 0.000020 -0.000035 292.524170
13 -47.610477 -288.454193 -9.889640 -0.000027 0.000020 -0.000035 292.524170
14 -47.610477 -288.454193 -9.889640 -0.000027 0.000020 -0.000035 292.524170
15 -47.610477 -288.454193 -9.889640 -0.000027 0.000020 -0.000035 292.524170
[wing_bottom_left_buckets_2]
12 -47.610565 -358.672546 -9.889595 -0.000031 -0.000003 -0.000031 361.953827
13 -47.610565 -358.672546 -9.889595 -0.000031 -0.000003 -0.000031 361.953827
14 -47.610565 -358.672546 -9.889595 -0.000031 -0.000003 -0.000031 361.953827
15 -47.610565 -358.672546 -9.889595 -0.000031 -0.000003 -0.000031 361.953827
[wing_bottom_left_buckets_3]
12 -47.610672 -428.104828 -9.889513 -0.000027 0.000020 -0.000035 430.857635
13 -47.610672 -428.104828 -9.889513 -0.000027 0.000020 -0.000035 430.857635
14 -47.610672 -428.104828 -9.889513 -0.000027 0.000020 -0.000035 430.857635
15 -47.610672 -428.104828 -9.889513 -0.000027 0.000020 -0.000035 430.857635
[wing_bottom_right_buckets]
12 -47.962635 -358.672546 9.386807 0.000027 0.000061 -0.000035 361.986908
13 -47.962635 -358.672546 9.386807 0.000027 0.000061 -0.000035 361.986908
14 -47.962635 -358.672546 9.386807 0.000027 0.000061 -0.000035 361.986908
15 -47.962635 -358.672546 9.386807 0.000027 0.000061 -0.000035 361.986908
[wing_top_left_buckets]
12 -45.484066 -358.586609 10.598831 0.001704 2.939721 0.001704 361.615112
13 -45.484066 -358.586609 10.598831 0.001708 3.187091 0.001708 361.615112
14 -45.484066 -358.586609 10.598831 0.001715 3.622505 0.001715 361.615112
15 -45.484066 -358.586609 10.598831 0.001735 4.839981 0.001735 361.615112
[wing_top_left_buckets_1]
12 -45.484005 -287.973450 10.598879 0.000027 0.000000 -0.000035 291.735931
13 -45.484005 -287.973450 10.598879 0.000027 0.000000 -0.000035 291.735931
14 -45.484005 -287.973450 10.598879 0.000027 0.000000 -0.000035 291.735931
15 -45.484005 -287.973450 10.598879 0.000027 0.000000 -0.000035 291.735931
[wing_top_left_buckets_3]
12 -45.484154 -426.601654 10.598794 0.000027 0.000000 -0.000035 429.150452
13 -45.484154 -426.601654 10.598794 0.000027 0.000000 -0.000035 429.150452
14 -45.484154 -426.601654 10.598794 0.000027 0.000000 -0.000035 429.150452
15 -45.484154 -426.601654 10.598794 0.000027 0.000000 -0.000035 429.150452
[wing_top_right_buckets]
12 -46.906902 -358.586700 -9.449236 -0.000044 -0.000038 -0.000035 361.765076
13 -46.906902 -358.586700 -9.449236 -0.000044 -0.000038 -0.000035 361.765076
14 -46.906902 -358.586700 -9.449236 -0.000044 -0.000038 -0.000035 361.765076
15 -46.906902 -358.586700 -9.449236 -0.000044 -0.000038 -0.000035 361.765076
